<svg width="69" height="92" viewBox="0 0 69 92" fill="none" xmlns="http://www.w3.org/2000/svg">
<g id="Calque_1" clip-path="url(#clip0_194_37)">
<path id="Vector" d="M68.9941 41.4859C68.9601 42.0958 68.814 42.6954 68.5625 43.2571L68.4147 43.5617L68.0334 44.343L67.6875 45.0509L61.6927 57.3396L61.6542 57.4129V57.4298C61.5764 57.6091 61.5324 57.8001 61.5242 57.9939C61.5242 58.0249 61.5242 58.0532 61.5242 58.0842V65.0422C61.5242 65.1127 61.5242 65.1832 61.5242 65.2566C61.4861 66.0017 61.2288 66.7215 60.7818 67.3335C60.3348 67.9456 59.7162 68.4251 58.9967 68.7172C58.3797 68.9733 57.7088 69.0892 57.0369 69.0557C56.1798 69.0156 55.355 68.7306 54.6698 68.2378C53.9845 67.7449 53.4704 67.0668 53.194 66.2917C53.071 65.9439 53.0013 65.581 52.9871 65.2143V57.7514C52.9871 57.5116 52.9871 57.2719 53.0048 57.0293C53.0299 56.5816 53.0793 56.1353 53.1526 55.6924C53.339 54.538 53.6849 53.4123 54.1814 52.3446L54.3764 51.9469L57.4123 45.7165C57.5149 45.5103 57.5651 45.284 57.5588 45.0558C57.5526 44.8276 57.49 44.604 57.3763 44.4032C57.2626 44.2024 57.1009 44.03 56.9043 43.9C56.7076 43.7699 56.4817 43.6859 56.2447 43.6548H56.1678L55.6919 43.5984L26.2645 40.0192L20.2341 39.2887H20.1661C18.8394 39.1272 17.6086 38.5435 16.6726 37.632C15.7366 36.7205 15.15 35.5344 15.0078 34.2655C14.928 33.4589 14.8896 32.641 14.8896 31.8174C14.8896 17.4529 27.1542 5.8101 42.2833 5.8101C48.2775 5.80034 54.1094 7.66777 58.8839 11.1258C63.6584 14.5837 67.1115 19.4412 68.7133 24.9524C68.7813 25.1809 68.8433 25.4122 68.9025 25.6434C69.1518 26.7408 68.934 27.8877 68.297 28.8319C67.66 29.776 66.6561 30.4401 65.506 30.6779C64.3558 30.9158 63.1538 30.708 62.1643 30.1003C61.1747 29.4925 60.4787 28.5346 60.2294 27.4372L60.191 27.2906C59.1328 23.3754 56.6913 19.9284 53.2787 17.5312C49.866 15.1341 45.6911 13.9337 41.4586 14.1326C37.226 14.3314 33.1949 15.9174 30.0456 18.6228C26.8963 21.3282 24.8215 24.9874 24.1716 28.9829L24.145 29.1323C24.145 29.1662 24.145 29.2 24.1302 29.2339C24.1154 29.2677 24.1302 29.2987 24.1302 29.3326C24.1087 29.7841 24.2501 30.2289 24.531 30.5929C24.8118 30.9568 25.215 31.2178 25.6733 31.3323L26.2201 31.3971L26.4152 31.4197L60.2826 35.5235L64.1077 35.986H64.155C65.1188 36.104 66.0335 36.4601 66.8087 37.0191C67.5838 37.5781 68.1924 38.3206 68.5743 39.1731C68.8986 39.903 69.0422 40.6944 68.9941 41.4859Z" fill="white"/>
<path id="Vector_2" d="M44.0242 0.894089C44.022 0.928703 44.0125 0.96254 43.9964 0.9936C43.9802 1.02466 43.9577 1.05231 43.9301 1.07493C43.9026 1.09754 43.8705 1.11465 43.8359 1.12525C43.8013 1.13585 43.7648 1.13973 43.7286 1.13665C43.2054 1.1169 42.6822 1.10562 42.1531 1.10562C21.8214 1.10562 5.33553 16.7534 5.33553 36.0594C5.34555 43.0125 7.5276 49.8051 11.603 55.5694C15.6783 61.3337 21.462 65.8081 28.2153 68.4211C28.266 68.4414 28.3088 68.4762 28.3379 68.5206C28.367 68.565 28.381 68.617 28.3779 68.6693C28.3757 68.7039 28.3662 68.7378 28.35 68.7688C28.3339 68.7999 28.3113 68.8275 28.2838 68.8502C28.2562 68.8728 28.2242 68.8899 28.1896 68.9005C28.155 68.9111 28.1185 68.9149 28.0823 68.9119H28.0527H28.0113C11.9246 65.1691 -0.00900269 51.3913 -0.00900269 34.965C-0.000134551 15.6478 16.4857 8.23349e-06 36.8292 8.23349e-06C39.1682 -0.00151432 41.502 0.208133 43.7996 0.626147C43.8627 0.641021 43.9189 0.675333 43.9595 0.723771C44.0001 0.772209 44.0229 0.832071 44.0242 0.894089Z" fill="white"/>
<path id="Vector_3" d="M36.4214 78.1995C35.7899 78.2013 35.1779 77.9903 34.6934 77.6037C34.209 77.2172 33.883 76.6799 33.7731 76.0865C33.6633 75.4931 33.7764 74.8817 34.0927 74.3601C34.409 73.8386 34.9081 73.4403 35.5021 73.2355L48.0003 68.9174C48.3347 68.7866 48.6934 68.7216 49.0548 68.7263C49.4162 68.731 49.7729 68.8053 50.1035 68.9448C50.4341 69.0842 50.7317 69.2859 50.9786 69.5378C51.2255 69.7897 51.4165 70.0866 51.5402 70.4106C51.6639 70.7346 51.7177 71.0792 51.6984 71.4235C51.6792 71.7679 51.5872 72.105 51.4281 72.4147C51.2689 72.7243 51.0459 73.0001 50.7723 73.2254C50.4987 73.4508 50.1802 73.6212 49.836 73.7262L37.3378 78.0443C37.0443 78.147 36.7341 78.1995 36.4214 78.1995Z" fill="white"/>
<path id="Vector_4" d="M42.9011 91.9999C42.2693 92.0024 41.6568 91.7919 41.1718 91.4056C40.6868 91.0192 40.3603 90.4819 40.2501 89.8883C40.1398 89.2947 40.2527 88.6831 40.569 88.1612C40.8853 87.6393 41.3846 87.2408 41.9788 87.0359L54.4799 82.7178C54.8134 82.5911 55.1701 82.5295 55.529 82.5367C55.8878 82.5439 56.2416 82.6196 56.5692 82.7595C56.8968 82.8994 57.1917 83.1006 57.4365 83.3511C57.6812 83.6017 57.8707 83.8965 57.9939 84.2182C58.1171 84.5398 58.1714 84.8818 58.1537 85.2239C58.1359 85.566 58.0464 85.9011 57.8905 86.2096C57.7345 86.5181 57.5153 86.7936 57.2458 87.0198C56.9764 87.246 56.6621 87.4184 56.3215 87.5267L43.8234 91.8448C43.5276 91.9469 43.2156 91.9994 42.9011 91.9999Z" fill="white"/>
<path id="Vector_5" d="M37.8137 85.7273C37.1811 85.7317 36.5673 85.5224 36.081 85.1364C35.5947 84.7504 35.2673 84.2126 35.1568 83.6183C35.0463 83.024 35.1599 82.4115 35.4774 81.8895C35.7949 81.3674 36.2958 80.9695 36.8914 80.7661L55.8988 74.2029C56.2353 74.0562 56.6 73.9774 56.9699 73.9715C57.3398 73.9657 57.707 74.0328 58.0484 74.1688C58.3899 74.3048 58.6981 74.5066 58.9539 74.7617C59.2097 75.0167 59.4074 75.3195 59.5347 75.6509C59.662 75.9824 59.7161 76.3354 59.6937 76.6877C59.6712 77.0401 59.5726 77.3842 59.4041 77.6984C59.2356 78.0127 59.0009 78.2904 58.7146 78.5139C58.4283 78.7375 58.0966 78.9022 57.7404 78.9977L38.7331 85.5665C38.4383 85.6691 38.1275 85.7234 37.8137 85.7273Z" fill="white"/>
</g>
<defs>
<clipPath id="clip0_194_37">
<rect width="69" height="92" fill="white"/>
</clipPath>
</defs>
</svg>
