<?xml version="1.0" standalone="no"?>
<!DOCTYPE svg PUBLIC "-//W3C//DTD SVG 20010904//EN"
 "http://www.w3.org/TR/2001/REC-SVG-20010904/DTD/svg10.dtd">
<svg version="1.0" xmlns="http://www.w3.org/2000/svg"
 width="2580.000000pt" height="852.000000pt" viewBox="0 0 300.000000 127.000000"
 preserveAspectRatio="xMidYMid meet">

<g transform="translate(0.000000,127.000000) scale(0.100000,-0.100000)"
fill="#000000" stroke="none">
<path d="M7 1183 c17 -189 126 -342 292 -409 l42 -16 53 50 54 51 -52 17 c-86
28 -179 80 -236 131 -59 53 -125 147 -135 193 -12 53 -24 42 -18 -17z"/>
<path d="M15 960 c19 -145 96 -258 227 -334 36 -21 49 -24 52 -14 12 44 26
111 24 112 -120 49 -205 121 -271 227 l-39 64 7 -55z"/>
<path d="M405 965 c-27 -8 -53 -14 -57 -15 -36 -2 39 -42 119 -65 12 -3 45 2
73 11 56 18 179 15 235 -6 44 -17 41 -4 -7 23 -105 61 -253 82 -363 52z"/>
<path d="M2134 931 c-55 -14 -54 -8 -54 -228 0 -190 -2 -210 -21 -250 -37 -76
-106 -94 -158 -42 -64 63 -62 160 4 226 39 39 74 42 116 12 l29 -20 0 45 c0
25 -5 48 -11 52 -6 3 -39 7 -73 7 -154 0 -248 -131 -206 -285 41 -146 252
-188 362 -71 53 56 58 82 58 333 0 126 -3 230 -7 229 -5 -1 -22 -4 -39 -8z"/>
<path d="M555 848 c-109 -39 -195 -160 -195 -273 0 -158 183 -291 353 -255 30
6 62 17 72 24 15 11 16 15 4 35 -10 15 -20 20 -34 16 -105 -33 -155 -30 -206
12 -101 85 -89 298 19 365 42 26 130 30 170 9 20 -11 27 -10 43 5 27 25 24 33
-23 54 -48 22 -153 26 -203 8z"/>
<path d="M45 755 c16 -69 77 -177 131 -230 47 -48 145 -115 167 -115 4 0 -2
17 -13 38 -11 20 -23 54 -26 75 -6 33 -13 41 -65 68 -75 40 -129 87 -169 146
-28 42 -31 44 -25 18z"/>
<path d="M948 726 c-59 -21 -85 -42 -113 -91 -80 -136 -13 -293 138 -325 103
-21 214 43 247 144 19 60 8 139 -26 188 -52 74 -167 114 -246 84z m120 -76
c39 -24 62 -73 62 -130 0 -104 -92 -174 -165 -126 -90 59 -85 221 9 262 42 18
56 17 94 -6z"/>
<path d="M1438 731 c-90 -29 -135 -87 -150 -193 -10 -73 -7 -203 6 -215 4 -4
26 -1 49 7 l42 15 0 115 c0 125 12 165 60 196 37 24 88 11 117 -29 21 -29 23
-45 26 -169 4 -154 4 -154 77 -124 l35 15 0 84 c0 163 -30 237 -114 280 -43
22 -109 30 -148 18z"/>
<path d="M2376 725 c-59 -21 -88 -46 -118 -105 -56 -106 -23 -236 73 -286 95
-49 188 -36 260 36 73 73 88 158 44 247 -28 56 -77 95 -140 112 -51 14 -71 13
-119 -4z m132 -81 c96 -63 48 -266 -63 -266 -72 0 -138 102 -116 179 29 100
104 136 179 87z"/>
<path d="M2859 716 c-59 -21 -96 -53 -123 -108 -24 -47 -26 -63 -26 -170 0
-129 -2 -125 61 -108 l37 10 3 113 c4 96 7 117 27 149 24 39 73 61 112 51 16
-4 23 2 34 28 14 32 13 34 -7 41 -35 10 -79 8 -118 -6z"/>
<path d="M2774 138 c3 -13 6 -38 6 -55 0 -18 5 -33 10 -33 6 0 10 25 10 55 0
44 -3 55 -16 55 -12 0 -15 -6 -10 -22z"/>
<path d="M1280 76 c0 -37 4 -66 10 -66 6 0 10 25 10 55 0 41 4 55 14 55 23 0
31 -22 13 -35 -22 -16 -10 -27 15 -14 13 7 18 19 16 37 -3 23 -8 27 -40 30
l-38 3 0 -65z"/>
<path d="M2688 75 c-2 -47 0 -65 10 -65 8 0 12 20 12 65 0 84 -17 84 -22 0z"/>
<path d="M2048 108 c-3 -11 -3 -50 1 -90 1 -5 7 -8 15 -8 11 0 13 10 9 40 -4
27 -2 40 6 40 8 0 7 5 -3 15 -18 18 -23 19 -28 3z"/>
<path d="M1377 93 c-11 -10 -8 -83 3 -83 6 0 10 11 10 24 0 14 7 31 15 40 8 8
15 17 15 20 0 8 -35 7 -43 -1z"/>
<path d="M1440 79 c-17 -31 2 -69 34 -69 35 0 42 18 9 22 -39 4 -42 28 -3 28
25 0 31 4 28 18 -5 27 -54 28 -68 1z m45 1 c3 -5 -1 -10 -10 -10 -9 0 -13 5
-10 10 3 6 8 10 10 10 2 0 7 -4 10 -10z"/>
<path d="M1530 56 c0 -52 17 -63 22 -13 2 24 8 32 23 32 16 0 20 -6 19 -32 -2
-38 13 -44 22 -9 11 47 2 61 -44 64 l-42 3 0 -45z"/>
<path d="M1642 88 c-29 -29 -7 -78 35 -78 29 0 30 18 1 22 -35 5 -34 28 2 28
25 0 31 4 28 18 -4 21 -48 28 -66 10z m43 -8 c3 -6 -4 -10 -17 -10 -18 0 -20
2 -8 10 19 12 18 12 25 0z"/>
<path d="M1743 93 c22 -6 21 -12 -3 -43 -27 -35 -25 -40 15 -40 19 0 35 5 35
10 0 6 -10 10 -22 10 l-21 0 21 23 c31 33 28 47 -10 46 -18 -1 -25 -3 -15 -6z"/>
<path d="M1850 93 c0 -28 23 -83 35 -83 7 0 20 20 28 45 18 51 4 62 -16 13
l-14 -33 -7 33 c-4 17 -12 32 -17 32 -5 0 -9 -3 -9 -7z"/>
<path d="M1940 80 c-15 -29 -4 -59 26 -66 34 -9 56 12 52 50 -3 27 -7 31 -35
34 -24 2 -34 -2 -43 -18z m58 -18 c4 -26 -26 -42 -38 -21 -11 16 7 52 23 46 7
-2 13 -13 15 -25z"/>
<path d="M2100 55 c0 -25 5 -45 10 -45 6 0 10 14 10 30 0 18 6 33 15 36 24 9
17 24 -10 24 -23 0 -25 -4 -25 -45z"/>
<path d="M2170 79 c-17 -31 2 -69 34 -69 34 0 43 18 11 22 -33 4 -33 22 0 26
35 5 30 36 -7 40 -19 2 -30 -3 -38 -19z m50 1 c0 -5 -7 -10 -16 -10 -8 0 -12
5 -9 10 3 6 10 10 16 10 5 0 9 -4 9 -10z"/>
<path d="M2301 78 c-5 -13 -5 -32 -1 -43 8 -23 47 -32 63 -16 8 8 3 11 -16 11
-17 0 -27 5 -27 15 0 10 10 15 30 15 28 0 30 2 20 20 -15 28 -58 26 -69 -2z
m54 2 c3 -5 -3 -10 -15 -10 -12 0 -18 5 -15 10 3 6 10 10 15 10 5 0 12 -4 15
-10z"/>
<path d="M2390 54 c0 -24 5 -44 10 -44 6 0 10 10 10 23 0 31 15 51 34 44 10
-4 16 -18 16 -37 0 -16 5 -30 11 -30 6 0 9 17 7 42 l-3 43 -42 2 -43 2 0 -45z"/>
<path d="M2496 78 c24 -80 36 -86 59 -32 17 42 19 54 6 54 -4 0 -13 -15 -18
-32 l-10 -33 -13 33 c-13 36 -35 45 -24 10z"/>
<path d="M2590 80 c-15 -29 -3 -59 26 -66 30 -8 54 11 54 40 0 46 -59 64 -80
26z m55 -21 c0 -15 -7 -25 -18 -27 -22 -4 -33 24 -17 43 18 21 35 13 35 -16z"/>
<path d="M2780 15 c0 -8 5 -15 10 -15 6 0 10 7 10 15 0 8 -4 15 -10 15 -5 0
-10 -7 -10 -15z"/>
</g>
</svg>
