<svg width="14" height="12" viewBox="0 0 14 12" fill="none" xmlns="http://www.w3.org/2000/svg">
<path d="M7.0507 11.7713C3.34714 11.7713 0.344818 9.13621 0.344818 5.88565C0.344818 2.63509 3.34714 0 7.0507 0C10.7543 0 13.7566 2.63509 13.7566 5.88565C13.7525 9.13473 10.7526 11.7677 7.0507 11.7713ZM7.0507 1.17713C4.08786 1.17713 1.68599 3.28521 1.68599 5.88565C1.68599 8.48609 4.08786 10.5942 7.0507 10.5942C10.0135 10.5942 12.4154 8.48609 12.4154 5.88565C12.4121 3.28642 10.0122 1.18005 7.0507 1.17713ZM10.4036 6.47422H6.38011V2.94283H7.72129V5.29709H10.4036V6.47422Z" fill="#FFB703"/>
</svg>
