<?xml version="1.0" standalone="no"?>
<!DOCTYPE svg PUBLIC "-//W3C//DTD SVG 20010904//EN"
 "http://www.w3.org/TR/2001/REC-SVG-20010904/DTD/svg10.dtd">
<svg version="1.0" xmlns="http://www.w3.org/2000/svg"
 width="2580.000000pt" height="852.000000pt" viewBox="0 0 800.000000 800.000000"
 preserveAspectRatio="xMidYMid meet">

<g transform="translate(0.000000,800.000000) scale(0.100000,-0.100000)"
fill="#000000" stroke="none">
<path d="M2100 7458 c-4 -279 3 -1064 9 -1068 5 -3 15 -21 24 -40 8 -20 74
-94 150 -168 75 -74 147 -150 162 -170 14 -21 71 -80 126 -132 129 -122 477
-471 692 -692 258 -266 290 -298 362 -365 37 -35 71 -63 76 -63 5 0 9 -258 9
-611 0 -500 3 -617 14 -642 8 -18 17 -40 20 -50 3 -11 15 -21 26 -24 11 -3 20
-9 20 -14 0 -15 113 -119 135 -125 12 -3 33 0 48 5 l27 11 0 1788 0 1789 -23
35 c-62 91 -210 194 -246 171 -14 -9 -16 -105 -19 -991 l-2 -981 -145 147
-144 147 -1 548 c0 396 -3 554 -12 570 -21 40 -153 163 -200 186 -78 40 -78
40 -79 -186 0 -109 -3 -192 -6 -184 -3 8 -55 62 -114 121 l-109 106 0 173 0
173 -77 80 c-88 90 -171 140 -198 118 -22 -19 -23 -601 0 -620 8 -7 15 -20 15
-29 0 -10 37 -54 83 -98 45 -45 96 -96 113 -115 17 -18 66 -62 108 -97 42 -36
76 -70 76 -76 0 -14 47 -57 83 -75 l27 -13 0 -151 c0 -83 -4 -146 -8 -140 -4
7 -128 136 -276 287 -147 152 -278 289 -290 305 -11 15 -56 63 -98 105 l-78
77 0 391 0 392 -87 88 c-48 49 -94 89 -104 89 -9 0 -22 7 -29 15 -15 18 -60
20 -60 3z"/>
<path d="M5878 7449 c-10 -10 -18 -23 -18 -29 0 -5 -4 -10 -10 -10 -5 0 -10
-6 -10 -13 0 -7 -22 -35 -50 -62 l-50 -49 0 -401 0 -400 -309 -310 c-284 -285
-367 -364 -392 -373 -5 -2 -9 -10 -9 -18 0 -8 -9 -14 -20 -14 -19 0 -20 7 -20
96 0 83 2 96 18 100 9 3 27 20 40 38 32 47 167 174 196 186 14 5 26 16 26 24
0 8 37 48 82 88 45 40 99 91 120 113 l38 40 0 311 c0 295 -1 312 -19 328 -11
10 -24 15 -30 12 -5 -4 -14 1 -19 10 -15 26 -83 6 -100 -29 -7 -15 -18 -27
-24 -27 -16 0 -78 -66 -78 -83 0 -9 -4 -19 -10 -22 -6 -4 -10 -77 -10 -186 l0
-180 -30 -10 c-18 -7 -30 -18 -30 -29 0 -16 -71 -87 -139 -138 l-31 -24 0 149
c0 153 -5 173 -41 173 -9 0 -19 7 -23 15 -8 21 -40 19 -61 -5 -10 -11 -24 -20
-32 -20 -7 0 -18 -11 -23 -25 -6 -15 -17 -25 -30 -25 -13 0 -20 -7 -20 -18 0
-10 -11 -29 -25 -42 l-25 -23 0 -561 0 -561 -148 -149 -147 -149 -5 949 c-3
522 -9 955 -13 962 -5 6 -18 12 -29 12 -11 0 -26 7 -32 16 -18 24 -43 7 -134
-88 l-82 -87 2 -1772 c2 -1407 6 -1773 16 -1777 6 -2 12 -11 12 -21 0 -26 20
-41 55 -41 26 0 46 15 118 89 l87 88 0 619 0 619 234 234 c129 129 244 238
255 243 12 4 21 13 21 19 0 11 72 89 83 89 11 0 75 67 81 85 5 17 234 249 773
782 68 67 123 125 123 128 0 4 11 20 25 37 l25 30 0 519 c0 340 -4 527 -10
540 -6 10 -19 19 -29 19 -10 0 -24 7 -31 15 -17 21 -61 17 -82 -6z"/>
<path d="M2113 6013 c-10 -4 -13 -102 -13 -443 0 -380 2 -439 15 -444 8 -3 15
-13 15 -22 0 -10 12 -33 27 -53 38 -52 256 -270 269 -271 7 0 19 -12 29 -26
22 -34 150 -164 184 -186 38 -26 75 -22 114 12 19 16 45 33 58 39 29 10 52 71
40 103 -4 11 -112 125 -240 253 l-232 232 3 111 3 112 463 -462 462 -462 0
-587 c0 -509 2 -588 15 -599 8 -7 15 -20 15 -29 0 -9 36 -55 81 -101 44 -47
86 -97 94 -111 7 -14 35 -43 61 -65 66 -54 349 -340 376 -380 28 -40 94 -84
127 -84 18 0 54 30 139 118 303 312 434 442 445 442 7 0 21 14 30 30 10 17 25
30 33 30 8 0 14 7 14 15 0 9 18 35 40 59 l40 43 0 597 0 597 454 453 c249 249
456 460 459 467 3 8 6 -27 6 -78 l1 -92 -235 -235 c-186 -185 -235 -240 -235
-260 0 -14 5 -26 10 -26 6 0 10 -8 10 -18 0 -10 18 -35 40 -55 22 -19 40 -40
40 -46 0 -13 64 -41 94 -41 14 0 106 85 291 270 l270 270 3 436 c3 452 2 464
-38 464 -10 0 -20 7 -24 15 -3 8 -14 15 -24 15 -11 0 -290 -271 -715 -697
l-697 -697 0 -606 0 -606 -187 -187 c-104 -104 -208 -210 -233 -237 -53 -58
-80 -72 -80 -41 0 11 -10 26 -24 33 -27 14 -316 311 -316 325 0 4 -23 30 -50
56 l-50 48 0 589 c0 380 -4 598 -10 616 -6 15 -311 327 -678 694 -528 528
-677 672 -714 689 -49 22 -54 23 -75 14z"/>
<path d="M2837 4522 l-87 -87 0 -281 c0 -238 2 -283 15 -294 8 -7 15 -20 15
-29 0 -9 89 -105 198 -214 174 -174 201 -197 229 -197 49 0 55 22 51 171 l-3
129 -112 113 -113 112 0 311 c0 264 -2 313 -15 324 -8 7 -22 10 -30 6 -9 -3
-15 0 -15 9 0 9 -9 15 -23 15 -15 0 -51 -29 -110 -88z"/>
<path d="M5100 4591 c-6 -12 -10 -133 -10 -323 l0 -303 -115 -115 -115 -115 0
-127 c0 -106 3 -128 15 -128 9 0 12 -6 9 -15 -9 -23 15 -45 48 -45 20 0 44 12
71 35 22 19 44 35 48 35 4 0 11 9 14 21 4 11 15 23 25 27 10 4 29 23 42 42 13
19 38 44 55 55 17 11 36 30 42 43 6 12 17 22 25 22 8 0 24 16 35 36 12 20 31
38 42 41 45 12 49 43 49 345 l0 283 -88 88 c-48 48 -95 87 -103 87 -9 0 -22 7
-29 15 -17 21 -47 19 -60 -4z"/>
<path d="M152 1977 c-13 -15 -14 -21 -4 -35 7 -9 18 -28 24 -42 7 -14 18 -31
24 -37 7 -7 22 -29 35 -50 12 -21 29 -44 37 -50 12 -10 100 -13 363 -13 l347
0 6 -31 c3 -17 6 -92 6 -165 l0 -134 -235 0 -235 0 0 101 c0 107 -9 139 -40
139 -10 0 -22 5 -25 10 -3 6 -48 10 -100 10 -75 0 -94 -3 -99 -16 -3 -9 -6
-103 -6 -210 0 -164 2 -196 15 -200 8 -4 15 -17 15 -30 0 -17 8 -28 27 -35 17
-6 174 -9 433 -7 l407 3 37 29 c73 55 76 71 76 423 0 306 0 313 -21 323 -11 7
-23 9 -26 6 -3 -3 -11 1 -17 9 -9 12 -87 15 -519 17 -480 3 -509 2 -525 -15z
m1018 -317 c0 -322 -2 -333 -63 -370 -30 -19 -53 -20 -424 -20 l-393 0 0 185
0 185 70 0 69 0 3 -127 3 -128 295 0 295 0 0 225 0 225 -380 3 -380 3 -30 41
c-16 23 -34 48 -38 55 -7 11 79 13 483 13 l490 0 0 -290z"/>
<path d="M1379 1986 c-20 -21 2 -80 55 -150 l25 -33 3 -272 c2 -189 6 -274 14
-279 7 -4 13 -16 15 -27 2 -11 15 -25 29 -32 30 -15 158 -17 194 -3 l26 10 0
374 c0 370 0 375 -21 386 -11 7 -23 9 -26 6 -3 -3 -11 1 -17 8 -13 17 -281 27
-297 12z m271 -376 l0 -340 -70 0 -70 0 0 266 0 266 -50 69 c-27 38 -50 71
-50 74 0 3 54 5 120 5 l120 0 0 -340z"/>
<path d="M1844 1987 c-23 -13 -16 -38 41 -142 30 -54 55 -101 55 -102 0 -2 11
-21 25 -43 14 -22 25 -48 25 -59 0 -11 7 -26 15 -35 8 -8 15 -21 15 -28 0 -7
11 -23 24 -36 13 -12 33 -39 44 -60 47 -90 142 -259 155 -277 13 -18 26 -20
127 -20 l112 0 12 35 c7 19 40 82 73 140 33 58 74 130 90 160 17 30 71 128
122 217 50 90 91 171 91 180 0 26 -10 37 -55 59 -38 19 -77 22 -211 15 -7 -1
-26 -27 -42 -58 -80 -153 -98 -182 -114 -186 -12 -4 -18 -15 -18 -33 0 -28
-77 -174 -92 -174 -4 0 -8 8 -8 17 0 9 -11 28 -24 42 -13 15 -51 78 -83 141
-90 173 -118 215 -148 220 -5 1 -17 7 -25 15 -17 15 -183 25 -206 12z m329
-304 c78 -144 145 -262 149 -263 3 0 71 119 150 265 l143 264 79 1 c70 0 77
-2 71 -17 -3 -10 -82 -153 -174 -318 -93 -165 -174 -310 -180 -323 -11 -21
-18 -23 -88 -20 l-76 3 -149 265 c-82 146 -167 298 -190 338 l-40 73 82 -3 81
-3 142 -262z"/>
<path d="M2969 1986 c-16 -17 -10 -39 21 -86 l29 -44 -19 -34 c-24 -40 -25
-61 -4 -69 8 -3 13 -12 10 -20 -3 -7 3 -22 13 -32 16 -16 32 -18 102 -16 83 3
83 3 101 -26 10 -16 18 -32 18 -34 0 -3 -79 -5 -175 -5 l-175 0 -23 -37 c-13
-21 -38 -65 -56 -98 -18 -33 -44 -70 -57 -82 -13 -12 -24 -31 -24 -42 0 -11
-10 -36 -22 -57 -19 -33 -20 -38 -6 -48 9 -7 18 -23 20 -36 2 -16 12 -27 28
-31 32 -9 168 -11 198 -3 15 5 41 37 78 100 l55 94 147 0 148 0 37 -65 c20
-35 37 -68 37 -74 0 -5 14 -21 32 -36 30 -26 36 -27 130 -23 106 3 118 9 118
58 -1 14 -12 43 -25 65 -14 22 -25 46 -25 54 0 8 -8 24 -18 35 -16 18 -80 127
-147 251 -61 112 -160 282 -174 298 -33 39 -74 48 -220 50 -79 1 -146 -2 -152
-7z m481 -367 c102 -182 187 -335 188 -340 2 -5 -32 -9 -76 -9 l-80 0 -57 100
-56 100 -179 0 -178 0 -58 -100 -59 -100 -77 0 c-43 0 -78 3 -78 6 0 3 39 75
87 160 l87 154 193 0 c106 0 193 2 193 4 0 2 -22 43 -49 92 l-49 89 -90 3 -90
3 21 39 22 39 -32 45 -33 46 133 0 132 -1 185 -330z"/>
<path d="M3514 1982 c-7 -7 -10 -20 -7 -30 13 -34 104 -177 120 -189 12 -9 61
-13 160 -13 l143 0 0 -250 c0 -148 4 -250 9 -250 5 0 11 -10 13 -22 5 -37 43
-49 140 -46 55 2 92 8 100 16 10 10 14 78 16 282 l3 270 159 0 c187 0 190 1
190 105 0 68 -16 108 -45 114 -11 2 -22 7 -25 12 -3 4 -221 10 -485 11 -378 2
-481 0 -491 -10z m956 -87 l0 -55 -177 -2 -178 -3 -2 -280 -2 -280 -70 -3 -71
-3 -2 283 -3 283 -172 5 -171 5 -36 47 c-20 26 -36 49 -36 52 0 3 207 6 460 6
l460 0 0 -55z"/>
<path d="M4674 1987 c-20 -11 -17 -45 6 -74 11 -14 20 -32 20 -39 0 -8 5 -14
10 -14 6 0 15 -11 20 -25 5 -14 14 -25 20 -25 8 0 10 -88 10 -281 -1 -176 2
-284 8 -288 6 -3 12 -17 13 -31 l4 -25 433 0 c374 0 434 2 442 15 5 8 10 49
10 91 0 80 -14 109 -53 109 -9 0 -17 5 -17 10 0 6 -101 10 -284 10 -279 0
-284 0 -279 20 5 19 14 20 193 20 226 0 220 -3 220 113 0 64 -3 80 -20 97 -12
12 -25 18 -29 15 -5 -2 -14 2 -21 10 -10 12 -44 15 -180 15 -163 0 -168 1
-163 20 5 19 14 20 303 20 258 0 301 2 314 16 12 11 16 36 16 92 0 42 -4 82
-8 88 -4 6 -23 19 -43 28 -32 15 -87 17 -483 19 -246 1 -454 -2 -462 -6z m906
-92 l0 -55 -320 0 -320 0 0 -85 0 -85 210 0 210 0 0 -60 0 -60 -210 0 -211 0
3 -80 3 -81 315 -2 315 -2 3 -57 3 -58 -391 0 -390 0 0 285 c0 221 -3 285 -12
285 -7 1 -30 25 -51 55 l-38 55 441 0 440 0 0 -55z"/>
<path d="M6784 1987 c-22 -12 -17 -38 16 -90 17 -26 30 -52 30 -57 0 -5 8 -13
18 -19 15 -9 17 -35 20 -290 2 -155 7 -281 12 -281 5 0 10 -10 12 -22 5 -37
43 -49 140 -46 54 2 92 8 100 16 9 9 14 53 16 137 l4 125 193 0 193 0 4 -101
c2 -57 8 -103 15 -107 6 -4 12 -16 14 -27 7 -34 47 -46 141 -43 55 2 92 8 100
16 10 10 14 90 16 350 3 328 -2 409 -28 414 -6 0 -16 1 -22 2 -7 1 -17 7 -23
13 -13 17 -182 20 -198 4 -8 -8 -12 -56 -12 -141 l0 -130 -200 0 -200 0 3 98
c3 104 -7 149 -35 158 -10 3 -27 10 -38 14 -26 12 -272 17 -291 7z m273 -177
l1 -135 266 -3 266 -2 0 140 0 140 75 0 75 0 0 -340 0 -340 -75 0 -75 0 0 140
0 140 -266 -2 -266 -3 1 -137 2 -138 -76 0 -75 0 0 271 0 271 -28 37 c-16 20
-39 51 -51 69 l-23 33 124 -3 123 -3 2 -135z"/>
<path d="M5751 1976 c-9 -11 -11 -97 -9 -323 l3 -308 28 -52 c35 -66 76 -100
130 -108 23 -3 199 -5 390 -3 404 3 377 -4 377 108 0 72 -18 110 -51 110 -10
0 -19 5 -19 10 0 6 -103 10 -290 10 l-290 0 0 165 0 165 308 0 c173 0 313 4
322 10 23 14 27 153 5 186 -10 15 -22 23 -31 20 -8 -3 -17 1 -20 9 -9 22 -835
23 -853 1z m829 -81 l0 -55 -322 -2 -323 -3 0 -225 0 -225 323 -3 322 -2 0
-55 0 -55 -352 0 c-379 0 -383 1 -422 53 -20 27 -21 42 -24 314 -2 157 -1 292
2 299 4 12 75 14 401 14 l395 0 0 -55z"/>
<path d="M262 928 c-8 -8 -12 -54 -12 -142 1 -117 3 -135 23 -170 38 -66 67
-81 163 -85 57 -2 98 2 129 12 40 14 48 14 75 0 25 -12 57 -14 173 -9 78 3
156 5 172 4 82 -4 116 -1 127 10 7 7 14 51 16 112 3 72 8 100 18 104 11 4 14
-9 14 -67 0 -52 6 -85 20 -114 22 -47 37 -51 162 -49 85 2 104 12 113 60 6 27
10 31 38 31 33 0 56 -19 57 -46 0 -31 28 -40 127 -43 124 -5 139 1 148 53 4
23 11 41 16 41 14 0 49 -38 49 -54 0 -24 30 -39 75 -39 69 0 75 10 75 124 0
92 1 99 20 99 18 0 20 -7 21 -72 1 -112 43 -166 119 -152 57 10 60 17 60 124
0 89 2 98 20 103 19 5 20 0 20 -74 0 -60 4 -81 14 -85 8 -3 13 -11 10 -18 -2
-6 2 -20 10 -31 13 -18 28 -20 148 -23 173 -3 182 1 186 86 2 49 0 64 -13 68
-20 8 -20 67 0 84 10 8 15 30 15 64 0 54 -12 76 -41 76 -9 0 -22 7 -29 15 -10
12 -39 15 -144 15 -82 0 -136 -4 -143 -11 -8 -8 -13 -8 -17 0 -5 7 -59 11
-155 11 -119 0 -151 -3 -161 -15 -11 -13 -15 -13 -41 0 -39 21 -203 20 -243 0
-36 -19 -50 -19 -66 0 -30 36 -125 4 -143 -48 -6 -17 -8 -17 -29 2 -53 50
-155 79 -173 51 -4 -7 -11 -8 -18 -1 -7 5 -102 10 -214 10 -191 1 -203 0 -213
-18 -15 -29 -12 -77 5 -91 8 -7 15 -20 15 -29 0 -25 20 -41 52 -41 25 0 28 -3
28 -35 0 -36 -13 -47 -24 -20 -4 11 -22 15 -76 15 l-70 0 0 70 c0 82 -14 120
-46 120 -12 0 -24 7 -28 15 -7 21 -79 20 -97 -1 -11 -14 -13 -14 -21 0 -11 19
-88 22 -106 4 -8 -8 -12 -47 -12 -110 0 -87 -2 -98 -17 -98 -16 0 -18 9 -15
67 4 85 -9 123 -42 123 -13 0 -26 7 -30 15 -7 18 -76 21 -94 3z m78 -138 l0
-111 83 3 82 3 1 105 c2 101 3 105 24 105 21 0 22 -3 21 -118 0 -77 -4 -123
-12 -133 -15 -18 -219 -20 -237 -2 -8 8 -12 53 -12 135 l0 123 25 0 25 0 0
-110z m336 0 l1 -105 109 -5 c101 -5 109 -7 109 -25 0 -19 -7 -20 -133 -20
l-133 0 0 128 c0 70 0 130 1 133 0 3 10 4 23 2 21 -3 22 -7 23 -108z m469 85
c0 -17 -8 -20 -52 -23 l-52 -3 -3 -107 -3 -107 -27 -3 -28 -3 0 110 0 111 -55
0 c-47 0 -55 3 -55 18 0 10 3 22 7 26 4 3 66 5 137 4 123 -3 131 -4 131 -23z
m105 -110 l0 -135 -25 0 -25 0 0 135 0 135 25 0 25 0 0 -135z m161 80 c24 -30
47 -55 50 -55 4 0 26 25 50 55 38 47 48 54 74 52 17 -1 29 -5 28 -9 -2 -5 -3
-64 -3 -133 l0 -125 -25 0 c-25 0 -25 1 -25 93 l-1 92 -49 -55 -49 -55 -40 45
c-22 25 -40 48 -41 53 0 4 -4 7 -10 7 -6 0 -10 -37 -10 -90 0 -89 0 -90 -25
-90 l-25 0 0 135 0 135 29 0 c22 0 37 -11 72 -55z m520 45 c17 -10 19 -22 19
-135 l0 -125 -25 0 c-23 0 -25 4 -25 45 l0 45 -80 0 -80 0 0 -45 c0 -43 -1
-45 -30 -45 l-30 0 0 115 c0 152 3 155 136 155 52 0 104 -5 115 -10z m349 -14
c0 -23 -4 -25 -52 -28 l-53 -3 -3 -107 c-3 -107 -3 -108 -27 -108 -24 0 -24 1
-27 108 l-3 107 -52 3 c-49 3 -53 5 -53 28 l0 24 135 0 135 0 0 -24z m300 -1
c0 -25 0 -25 -95 -25 l-95 0 0 -30 0 -30 80 0 c79 0 80 0 80 -25 0 -25 -1 -25
-80 -25 l-80 0 0 -30 0 -30 95 0 c95 0 95 0 95 -25 l0 -25 -120 0 -120 0 0
135 0 135 120 0 120 0 0 -25z"/>
<path d="M1740 810 l0 -40 80 0 80 0 0 40 0 40 -80 0 -80 0 0 -40z"/>
<path d="M2790 925 l-35 -13 -3 -119 c-2 -111 -1 -124 23 -170 13 -28 37 -59
52 -69 40 -26 176 -32 242 -10 44 14 52 14 80 0 21 -10 42 -13 64 -9 45 10 57
23 57 61 0 24 5 34 15 34 21 0 55 -36 55 -59 0 -27 47 -39 152 -36 99 2 118
12 118 61 0 32 2 34 28 28 38 -8 72 -26 67 -34 -3 -5 4 -18 14 -31 18 -22 23
-23 186 -23 153 0 169 2 181 19 8 10 14 31 14 46 0 27 1 27 44 -19 41 -43 47
-46 96 -46 33 0 54 5 60 14 7 12 13 12 36 0 19 -11 60 -15 134 -15 101 0 108
1 143 28 l37 28 0 130 c0 146 -12 189 -54 189 -13 0 -26 6 -29 14 -8 21 -234
23 -262 2 -26 -20 -49 -20 -65 -1 -9 11 -27 15 -54 13 l-41 -3 -3 -47 -3 -47
-31 34 c-16 19 -38 35 -48 35 -10 0 -23 6 -29 14 -18 22 -207 21 -219 -1 -8
-14 -10 -13 -15 1 -5 11 -19 16 -51 16 -39 0 -49 -4 -68 -30 -12 -16 -27 -30
-33 -30 -7 0 -37 14 -68 30 -66 35 -121 39 -139 11 -11 -19 -12 -19 -47 0 -28
15 -56 19 -133 19 -88 0 -100 -2 -124 -24 l-28 -23 -42 23 c-38 21 -55 24
-141 23 -54 -1 -114 -7 -133 -14z m252 -42 c10 -9 18 -27 18 -40 0 -18 -5 -23
-24 -23 -13 0 -27 7 -30 15 -5 13 -21 15 -83 13 l-78 -3 0 -80 0 -80 83 -3
c82 -3 82 -3 82 23 0 21 -5 25 -30 25 -25 0 -30 4 -30 25 0 24 3 25 55 25 l55
0 0 -63 c0 -36 -5 -68 -12 -75 -8 -8 -49 -12 -117 -12 -139 0 -141 2 -141 129
0 138 3 141 132 141 80 0 105 -3 120 -17z m340 0 c15 -14 18 -32 18 -135 l0
-118 -25 0 c-23 0 -25 4 -25 45 l0 46 -82 -3 -83 -3 -3 -42 c-3 -38 -6 -43
-28 -43 l-24 0 0 117 c0 153 0 153 133 153 79 0 104 -3 119 -17z m189 -38 c24
-30 46 -55 49 -55 4 0 28 25 54 56 39 45 53 55 75 52 l26 -3 0 -130 0 -130
-27 -3 -28 -3 0 93 -1 93 -48 -55 -49 -55 -41 45 c-22 25 -40 48 -41 53 0 4
-4 7 -10 7 -6 0 -10 -37 -10 -90 0 -89 0 -90 -25 -90 l-25 0 0 135 0 135 29 0
c22 0 37 -11 72 -55z m329 -80 l0 -135 -30 0 -30 0 0 128 c0 71 3 132 7 135 3
4 17 7 30 7 23 0 23 0 23 -135z m187 44 l78 -92 3 92 3 92 27 -3 27 -3 3 -132
3 -133 -33 1 c-29 0 -42 11 -108 92 l-75 91 -3 -93 -3 -92 -25 3 -25 3 0 128
c0 70 0 129 1 132 0 3 11 5 25 5 19 0 43 -22 102 -91z m454 81 c27 -15 27 -70
-1 -70 -10 0 -23 7 -28 15 -7 13 -24 15 -88 13 l-79 -3 0 -80 0 -80 83 -3 c82
-3 82 -3 82 23 0 21 -5 25 -30 25 -25 0 -30 4 -30 25 0 24 3 25 55 25 l55 0 0
-63 c0 -36 -5 -68 -12 -75 -8 -8 -49 -12 -119 -12 -136 0 -139 3 -139 137 0
127 6 133 136 133 52 0 104 -5 115 -10z"/>
<path d="M3187 844 c-4 -4 -7 -22 -7 -41 l0 -33 86 0 85 0 -3 38 -3 37 -75 3
c-42 1 -79 0 -83 -4z"/>
<path d="M4740 921 c-16 -31 -13 -278 4 -309 8 -15 17 -35 20 -45 10 -33 54
-39 250 -34 l190 4 22 27 c29 32 31 32 67 -1 27 -27 32 -28 133 -27 115 1 129
7 138 59 l7 34 67 3 67 3 20 -40 c32 -63 45 -66 263 -62 212 4 212 4 212 64
l0 32 44 -47 45 -47 321 0 c307 0 322 1 336 19 8 11 14 32 14 47 0 28 0 27 43
-17 37 -39 48 -46 82 -46 22 0 65 0 95 -1 299 -5 620 -1 630 9 20 20 24 90 6
125 -20 41 -20 83 0 115 28 42 5 124 -36 124 -10 0 -20 7 -24 15 -4 12 -30 15
-144 15 -94 0 -142 -4 -150 -12 -9 -9 -12 -9 -12 0 0 20 -295 15 -311 -4 -10
-13 -14 -12 -29 1 -12 11 -32 15 -61 13 -40 -3 -45 -6 -55 -35 -6 -21 -14 -30
-20 -24 -5 5 -31 21 -58 35 -51 27 -104 34 -123 15 -8 -8 -13 -8 -17 0 -10 16
-278 15 -294 -1 -9 -9 -15 -9 -24 0 -7 7 -30 12 -51 12 -30 0 -40 -4 -44 -19
-5 -20 -6 -20 -41 -1 -32 18 -59 19 -311 19 -232 0 -278 -2 -292 -15 -14 -13
-17 -13 -22 0 -5 11 -34 14 -147 15 -89 1 -147 -2 -155 -9 -9 -8 -15 -8 -20 0
-3 5 -26 10 -50 10 -37 0 -47 -5 -68 -31 -21 -27 -25 -28 -36 -15 -8 9 -21 16
-31 16 -10 0 -23 7 -30 15 -14 17 -81 20 -97 4 -8 -8 -13 -8 -17 0 -5 7 -58
11 -151 11 -132 0 -145 -2 -155 -19z m285 -46 c0 -18 -8 -20 -97 -23 l-98 -3
0 -29 0 -30 80 0 c79 0 80 0 80 -25 0 -25 -1 -25 -80 -25 l-80 0 0 -30 0 -29
98 -3 c89 -3 97 -5 97 -23 0 -19 -8 -20 -122 -23 l-123 -3 0 136 0 136 123 -3
c114 -3 122 -4 122 -23z m125 18 c1 -5 17 -26 36 -48 l35 -39 40 47 c31 36 47
47 70 47 16 0 29 -3 29 -7 0 -3 -22 -32 -50 -64 -27 -32 -50 -61 -50 -65 0 -4
19 -30 43 -58 63 -74 63 -76 25 -76 -27 1 -39 9 -68 45 -19 25 -37 45 -40 45
-3 -1 -21 -21 -40 -45 -26 -34 -42 -45 -62 -45 -16 0 -28 4 -28 9 0 5 20 33
45 63 25 30 45 58 45 62 0 4 -20 32 -45 60 -25 29 -45 58 -45 65 0 12 60 16
60 4z m522 -10 c13 -12 18 -31 18 -73 0 -79 -12 -88 -125 -92 l-90 -3 -3 -42
c-3 -38 -6 -43 -28 -43 l-24 0 0 135 0 135 117 0 c94 0 120 -3 135 -17z m318
-8 c0 -25 0 -25 -95 -25 l-95 0 0 -30 0 -30 73 0 c41 0 76 -3 79 -6 3 -3 4
-14 1 -25 -5 -17 -14 -19 -79 -19 l-74 0 0 -30 0 -30 95 0 c95 0 95 0 95 -25
l0 -25 -125 0 -125 0 0 128 c0 71 3 132 7 135 3 4 60 7 125 7 l118 0 0 -25z
m324 3 c22 -32 21 -120 -1 -140 -10 -9 -24 -17 -32 -20 -10 -3 -5 -14 18 -40
17 -20 31 -38 31 -42 0 -3 -13 -6 -30 -6 -22 0 -38 10 -67 45 -33 40 -42 45
-80 45 l-43 0 0 -45 c0 -41 -2 -45 -25 -45 l-25 0 0 135 0 135 119 0 c113 0
121 -1 135 -22z m127 -113 l0 -130 -25 -3 -26 -3 0 129 c0 71 3 132 7 136 4 4
16 6 26 4 17 -3 18 -14 18 -133z m314 110 c0 -18 -8 -20 -95 -25 -95 -5 -95
-5 -98 -32 l-3 -28 80 0 c80 0 81 0 81 -25 0 -25 -1 -25 -80 -25 l-80 0 0 -30
0 -29 98 -3 c89 -3 97 -5 97 -23 0 -19 -8 -20 -122 -23 l-123 -3 0 136 0 136
123 -3 c114 -3 122 -4 122 -23z m195 -65 c41 -49 77 -90 82 -90 4 0 8 41 8 90
0 89 0 90 25 90 l25 0 0 -135 0 -135 -29 0 c-25 0 -42 14 -108 94 l-78 95 -3
-95 c-3 -92 -3 -94 -27 -94 l-25 0 0 135 0 135 28 0 c23 0 41 -15 102 -90z
m478 63 c3 -23 2 -23 -107 -23 l-111 0 0 -85 0 -84 108 -3 c102 -3 107 -4 110
-25 3 -23 2 -23 -120 -23 -83 0 -128 4 -136 12 -8 8 -12 49 -12 117 0 143 -1
142 149 139 112 -3 116 -4 119 -25z m312 2 c0 -25 0 -25 -95 -25 l-95 0 0 -30
0 -30 75 0 c73 0 75 -1 75 -25 0 -24 -2 -25 -75 -25 l-75 0 0 -30 0 -30 95 0
c95 0 95 0 95 -25 l0 -25 -125 0 -125 0 0 128 c0 71 3 132 7 135 3 4 60 7 125
7 l118 0 0 -25z m-2630 -135 c-28 -39 -39 -45 -33 -18 9 43 12 48 33 48 l21 0
-21 -30z m2340 -2 c0 -22 -3 -23 -80 -20 -56 3 -80 7 -80 16 0 22 12 26 87 26
69 0 73 -1 73 -22z m-2073 -20 c-3 -7 -5 -2 -5 12 0 14 2 19 5 13 2 -7 2 -19
0 -25z"/>
<path d="M5474 836 c-3 -8 -4 -25 -2 -38 3 -22 8 -23 86 -26 l83 -3 -3 38 -3
38 -78 3 c-61 2 -79 0 -83 -12z"/>
<path d="M6117 844 c-4 -4 -7 -23 -7 -41 l0 -34 83 3 82 3 0 35 0 35 -75 3
c-42 1 -79 0 -83 -4z"/>
</g>
</svg>
