<svg width="190" height="492" viewBox="0 0 190 492" fill="none" xmlns="http://www.w3.org/2000/svg">
<g id="Ellipse 7" filter="url(#filter0_f_194_13)">
<ellipse cx="-7.08281" cy="245.905" rx="46.6165" ry="95.1722" fill="#FFB703"/>
<path d="M39.0337 245.905C39.0337 272.127 33.8267 295.841 25.431 312.982C17.0192 330.156 5.49314 340.577 -7.08281 340.577C-19.6588 340.577 -31.1848 330.156 -39.5966 312.982C-47.9923 295.841 -53.1993 272.127 -53.1993 245.905C-53.1993 219.683 -47.9923 195.969 -39.5966 178.828C-31.1848 161.655 -19.6588 151.233 -7.08281 151.233C5.49314 151.233 17.0192 161.655 25.431 178.828C33.8267 195.969 39.0337 219.683 39.0337 245.905Z" stroke="black"/>
</g>
<defs>
<filter id="filter0_f_194_13" x="-203.699" y="0.73291" width="393.233" height="490.344" filterUnits="userSpaceOnUse" color-interpolation-filters="sRGB">
<feFlood flood-opacity="0" result="BackgroundImageFix"/>
<feBlend mode="normal" in="SourceGraphic" in2="BackgroundImageFix" result="shape"/>
<feGaussianBlur stdDeviation="75" result="effect1_foregroundBlur_194_13"/>
</filter>
</defs>
</svg>
