<svg width="64" height="103" viewBox="0 0 64 103" fill="none" xmlns="http://www.w3.org/2000/svg">
<g id="Layer_1" clip-path="url(#clip0_194_212)">
<path id="Vector" d="M39.1572 9.52311L12.2156 34.5194C12.1403 34.5883 12.0981 34.6819 12.0981 34.7792C12.0981 34.8766 12.1403 34.9699 12.2156 35.0388L38.1001 58.6852C38.1396 58.7223 38.1705 58.7661 38.191 58.8143C38.2116 58.8625 38.2214 58.9141 38.2199 58.9659L38.057 65.817C38.0557 65.8893 38.031 65.9595 37.9861 66.019C37.9412 66.0786 37.8781 66.1247 37.8047 66.1517C37.7312 66.1787 37.6507 66.1852 37.5731 66.1706C37.4956 66.156 37.4244 66.1208 37.3686 66.0695L2.7043 34.6345C2.62979 34.5652 2.58801 34.4721 2.58801 34.375C2.58801 34.2778 2.62979 34.1847 2.7043 34.1154L39.1572 0.00831604" fill="white"/>
<path id="Vector_2" d="M3.83165e-05 93.4768L26.9417 68.4775C27.017 68.4086 27.0592 68.3153 27.0592 68.2179C27.0592 68.1206 27.017 68.0273 26.9417 67.9584L1.05401 44.312C1.01402 44.2754 0.98305 44.2313 0.962927 44.1829C0.942804 44.1345 0.934015 44.083 0.937268 44.0313L1.10023 37.1829C1.10157 37.1109 1.12594 37.0408 1.17045 36.9814C1.21496 36.922 1.27755 36.876 1.35051 36.8488C1.42348 36.8216 1.50369 36.8145 1.58099 36.8285C1.6583 36.8425 1.72942 36.8769 1.78552 36.9274L36.4498 68.3624C36.5251 68.4313 36.5673 68.5249 36.5673 68.6222C36.5673 68.7196 36.5251 68.8129 36.4498 68.8818L-0.00311279 102.989" fill="white"/>
<path id="Vector_3" d="M40.6938 30.548L57.9675 20.9658L41.4896 11.9676C41.4274 11.9342 41.3763 11.8859 41.3417 11.8281C41.3071 11.7703 41.2902 11.7051 41.2929 11.6393L41.3791 9.49204C41.3809 9.42733 41.4012 9.36439 41.4383 9.30922C41.4754 9.25406 41.5278 9.20869 41.5902 9.17793C41.6525 9.14718 41.7227 9.13214 41.7935 9.13408C41.8643 9.13602 41.9334 9.15478 41.9937 9.1889L63.4314 20.8115C63.4913 20.8441 63.5409 20.8904 63.5753 20.9458C63.6097 21.0011 63.6278 21.0636 63.6278 21.1272C63.6278 21.1909 63.6097 21.2536 63.5753 21.3089C63.5409 21.3643 63.4913 21.4103 63.4314 21.443L40.6906 34.1602" fill="white"/>
<path id="Vector_4" d="M40.6938 56.9926L57.9676 47.4106L41.4897 38.4122C41.4279 38.3784 41.3772 38.3301 41.3426 38.2724C41.308 38.2147 41.2909 38.1496 41.2929 38.0838L41.3791 35.9369C41.3809 35.8722 41.4013 35.809 41.4383 35.7538C41.4754 35.6986 41.5278 35.6533 41.5902 35.6225C41.6526 35.5918 41.7227 35.5767 41.7935 35.5787C41.8644 35.5806 41.9335 35.5996 41.9937 35.6338L64.0061 47.5677L40.6999 60.6048" fill="white"/>
</g>
<defs>
<clipPath id="clip0_194_212">
<rect width="64" height="103" fill="white"/>
</clipPath>
</defs>
</svg>
