<?xml version="1.0" standalone="no"?>
<!DOCTYPE svg PUBLIC "-//W3C//DTD SVG 20010904//EN"
 "http://www.w3.org/TR/2001/REC-SVG-20010904/DTD/svg10.dtd">
<svg version="1.0" xmlns="http://www.w3.org/2000/svg"
 width="225.000000pt" height="225.000000pt" viewBox="0 0 225.000000 225.000000"
 preserveAspectRatio="xMidYMid meet">

<g transform="translate(0.000000,225.000000) scale(0.100000,-0.100000)"
fill="#000000" stroke="none">
<path d="M1383 1428 c-4 -7 -8 -16 -9 -20 -1 -5 -2 -9 -4 -10 -1 -2 -3 -14 -4
-28 -6 -62 -29 -170 -37 -176 -15 -9 -10 -71 7 -88 20 -21 50 -20 100 3 54 24
86 71 92 132 6 60 -10 83 -47 74 -14 -4 -30 -8 -36 -9 -5 -1 -16 -5 -23 -10
-21 -13 -22 -4 -7 59 19 79 18 85 -4 85 -11 0 -23 -6 -28 -12z m93 -182 c4
-26 3 -37 -4 -32 -6 4 -8 -2 -5 -14 3 -12 0 -20 -8 -20 -7 0 -10 -3 -6 -6 8
-8 -44 -64 -60 -64 -32 0 -6 128 34 168 29 29 39 22 49 -32z"/>
<path d="M587 1379 c-27 -5 -59 -16 -71 -24 -13 -8 -26 -12 -29 -8 -4 3 -7 1
-7 -6 0 -7 -4 -9 -10 -6 -5 3 -10 1 -10 -5 0 -6 -4 -9 -9 -6 -15 10 -53 -41
-49 -66 2 -18 9 -23 33 -23 26 0 29 4 30 30 0 37 45 70 120 85 101 21 166 -13
151 -78 -4 -15 -8 -32 -9 -39 -5 -20 -39 -53 -53 -51 -16 4 -16 1 -24 -66 -3
-32 -2 -52 3 -49 5 3 6 -3 3 -14 -9 -28 44 -97 101 -133 122 -78 259 -65 573
55 183 69 244 85 350 92 52 3 102 9 110 13 26 14 -92 22 -170 11 -98 -13 -89
-10 -283 -76 -93 -31 -180 -58 -195 -60 -15 -2 -61 -9 -102 -15 -159 -23 -267
19 -316 124 -34 73 -31 96 16 128 73 51 91 132 38 171 -32 24 -117 31 -191 16z"/>
<path d="M1262 1360 c-15 -25 -15 -27 2 -33 20 -8 56 21 50 38 -9 21 -37 18
-52 -5z"/>
<path d="M1689 1341 c-39 -4 -63 -13 -75 -27 -11 -11 -14 -13 -9 -4 9 13 8 13
-7 1 -10 -7 -16 -17 -13 -21 5 -9 -20 -62 -26 -56 -2 3 -4 -18 -4 -45 0 -73
44 -93 96 -43 l28 26 26 -26 c14 -14 29 -26 33 -26 4 0 7 26 7 57 0 32 4 84 9
116 5 32 5 56 0 56 -5 -1 -34 -5 -65 -8z m9 -66 c0 -25 -5 -45 -10 -45 -5 0
-7 -4 -3 -9 3 -5 -6 -22 -20 -36 -47 -51 -72 -6 -40 72 20 48 34 63 56 63 15
0 18 -8 17 -45z"/>
<path d="M567 1299 c-9 -6 -15 -14 -12 -20 4 -5 3 -9 -2 -9 -4 0 -9 -21 -9
-47 -1 -26 -6 -49 -11 -50 -6 -2 -8 -15 -5 -28 2 -14 0 -25 -7 -25 -5 0 -8 -7
-5 -15 4 -8 2 -21 -4 -28 -5 -6 -13 -27 -17 -46 l-7 -34 38 6 c20 4 41 10 45
14 4 4 15 58 23 118 9 61 19 125 22 143 5 27 3 32 -12 32 -11 0 -27 -5 -37
-11z"/>
<path d="M1263 1285 c-12 -9 -20 -22 -17 -29 3 -8 0 -17 -5 -21 -6 -3 -9 -10
-6 -15 3 -4 1 -28 -4 -54 -6 -34 -5 -50 6 -66 20 -28 45 -27 38 3 -4 13 1 56
9 97 23 109 22 115 -21 85z"/>
<path d="M1155 1268 c-2 -7 -6 -30 -10 -50 -3 -21 -12 -43 -19 -50 -7 -7 -20
-25 -30 -40 -10 -16 -25 -28 -32 -28 -17 0 -18 28 -3 104 7 31 10 59 7 61 -7
7 -47 -8 -47 -18 1 -23 -15 -94 -23 -104 -5 -6 -8 -27 -6 -45 3 -29 7 -33 36
-36 25 -3 39 3 62 27 l30 30 16 -24 c8 -13 22 -26 31 -29 12 -5 14 -1 9 18 -3
13 1 60 9 103 8 43 15 81 15 86 0 12 -40 8 -45 -5z"/>
<path d="M866 1245 c-37 -13 -55 -29 -56 -48 0 -5 -4 -6 -8 -3 -4 2 -9 -5 -9
-16 -1 -12 -6 -24 -10 -27 -15 -11 -9 -91 7 -101 50 -33 121 -15 157 39 23 34
32 112 15 138 -15 24 -56 31 -96 18z m52 -39 c11 -37 5 -86 -10 -86 -5 0 -6
-5 -3 -11 8 -12 -43 -61 -59 -56 -28 9 -18 119 15 161 28 35 46 33 57 -8z"/>
<path d="M694 1208 l-19 -23 23 19 c21 18 27 26 19 26 -2 0 -12 -10 -23 -22z"/>
<path d="M1440 979 c-396 -142 -364 -133 -490 -134 -120 0 -139 -6 -140 -47 0
-10 -4 -18 -9 -18 -5 0 -18 -15 -29 -34 l-20 -34 37 -6 c20 -3 65 -5 101 -4
63 2 64 2 13 5 -29 2 -53 8 -53 14 0 5 5 9 10 9 6 0 10 5 10 11 0 6 -7 9 -15
5 -8 -3 -15 -2 -15 3 0 11 96 62 104 54 3 -3 6 -1 6 5 0 7 15 12 33 12 25 0
37 -6 47 -25 7 -13 17 -22 22 -19 4 3 8 -2 8 -10 0 -28 27 -17 43 17 23 48 59
77 103 83 36 6 38 5 19 -9 -11 -8 -31 -18 -45 -23 l-25 -8 30 -6 30 -5 -40
-20 c-33 -16 -36 -20 -20 -24 15 -3 10 -7 -20 -16 -23 -7 -39 -18 -37 -25 2
-7 -3 -20 -11 -29 -16 -18 -39 -82 -33 -89 3 -2 33 -1 67 3 51 6 60 10 47 19
-12 9 -13 14 -3 23 7 7 16 9 19 6 3 -4 6 -3 6 1 0 4 -7 15 -16 24 -15 14 -13
18 22 50 22 19 58 52 82 73 24 21 46 39 48 39 3 0 25 16 49 36 24 20 49 33 55
29 5 -3 10 -2 10 3 0 6 14 9 31 8 16 -1 32 1 35 6 9 15 24 8 24 -11 0 -41 19
-29 39 24 12 31 21 60 21 65 0 18 -33 11 -150 -31z m-280 -297 c0 -5 -7 -9
-15 -9 -8 0 -12 4 -9 9 3 4 9 8 15 8 5 0 9 -4 9 -8z m-45 -32 c-3 -5 -11 -10
-16 -10 -6 0 -7 5 -4 10 3 6 11 10 16 10 6 0 7 -4 4 -10z"/>
<path d="M1520 880 c0 -5 5 -10 11 -10 5 0 7 5 4 10 -3 6 -8 10 -11 10 -2 0
-4 -4 -4 -10z"/>
<path d="M1255 660 c3 -5 -2 -10 -11 -10 -10 0 -15 -3 -11 -6 9 -9 48 6 42 17
-4 5 -11 9 -16 9 -6 0 -7 -4 -4 -10z"/>
<path d="M1185 640 c3 -5 13 -10 21 -10 8 0 12 5 9 10 -3 6 -13 10 -21 10 -8
0 -12 -4 -9 -10z"/>
</g>
</svg>
