<?xml version="1.0" standalone="no"?>
<!DOCTYPE svg PUBLIC "-//W3C//DTD SVG 20010904//EN"
 "http://www.w3.org/TR/2001/REC-SVG-20010904/DTD/svg10.dtd">
<svg version="1.0" xmlns="http://www.w3.org/2000/svg"
 width="2580.000000pt" height="852.000000pt" viewBox="0 0 2580.000000 852.000000"
 preserveAspectRatio="xMidYMid meet">

<g transform="translate(0.000000,852.000000) scale(0.100000,-0.100000)"
fill="#000000" stroke="none">
<path d="M18430 8509 c-1118 -106 -2007 -866 -2734 -2339 -359 -726 -723
-1697 -904 -2415 -136 -535 -198 -968 -209 -1450 -8 -382 19 -716 83 -1003 87
-389 286 -753 537 -980 166 -151 405 -257 655 -293 119 -17 393 -6 502 19 358
84 600 248 928 632 17 19 33 32 37 29 3 -4 -15 -125 -40 -269 -25 -145 -44
-269 -41 -277 4 -11 118 -13 638 -13 348 0 639 4 646 8 15 10 1554 4621 1546
4633 -3 5 -560 9 -1238 9 -975 0 -1236 -3 -1244 -12 -16 -22 -503 -1518 -497
-1528 4 -6 162 -10 426 -10 348 0 421 -2 425 -14 6 -17 -78 -272 -153 -460
-247 -625 -547 -1066 -823 -1210 -104 -54 -165 -70 -261 -70 -77 0 -93 3 -152
32 -225 111 -284 411 -191 974 45 274 99 496 239 983 199 691 412 1333 662
1995 261 691 495 1133 723 1362 81 82 110 103 181 137 114 55 196 74 285 69
143 -9 233 -99 292 -290 45 -144 95 -516 108 -796 4 -100 11 -155 18 -158 15
-6 1587 534 1604 550 25 25 -10 434 -59 667 -127 618 -454 1070 -942 1304
-313 151 -694 218 -1047 184z"/>
<path d="M23620 8490 c-505 -61 -955 -264 -1380 -625 -115 -98 -366 -356 -471
-485 -291 -356 -534 -746 -798 -1280 -438 -884 -807 -1944 -981 -2817 -85
-426 -119 -716 -127 -1073 -12 -540 53 -921 217 -1266 155 -328 370 -554 680
-717 285 -150 713 -238 1090 -224 631 23 1242 313 1771 837 541 537 969 1252
1409 2355 390 976 635 1890 725 2705 23 201 31 652 16 832 -68 789 -366 1305
-906 1569 -176 86 -354 140 -575 174 -122 20 -551 29 -670 15z m220 -1486
c138 -74 197 -256 187 -574 -13 -400 -130 -932 -367 -1670 -37 -118 -103 -327
-145 -465 -321 -1050 -608 -1774 -890 -2247 -158 -266 -335 -462 -482 -535
-74 -36 -81 -38 -177 -38 -86 0 -107 3 -143 23 -144 76 -206 235 -206 527 0
318 58 614 259 1325 236 834 519 1677 811 2415 242 611 481 1001 719 1171 148
106 315 132 434 68z"/>
<path d="M995 8348 c-2 -7 -6 -1001 -10 -2208 -4 -1207 -10 -2393 -15 -2635
-7 -438 -7 -440 -34 -530 -24 -80 -914 -2754 -931 -2797 -7 -17 40 -18 907
-18 l915 0 451 1358 c318 955 465 1382 495 1442 24 47 489 767 1034 1600 1963
3005 2455 3762 2460 3781 5 19 -12 19 -1000 19 -943 0 -1006 -1 -1024 -17 -11
-10 -371 -663 -799 -1452 -672 -1238 -779 -1430 -782 -1400 -2 19 27 645 63
1391 36 746 65 1384 65 1417 l0 61 -895 0 c-708 0 -896 -3 -900 -12z"/>
<path d="M6757 8298 c-113 -205 -4207 -8120 -4207 -8133 0 -13 101 -15 913
-15 501 0 918 4 925 8 7 5 163 330 347 723 184 393 339 722 345 731 10 17 56
18 745 18 l735 0 0 -23 c0 -12 -56 -335 -125 -717 -69 -382 -125 -705 -125
-717 l0 -23 863 0 c474 0 868 4 874 8 12 8 1204 8178 1196 8195 -2 4 -555 7
-1228 7 l-1224 0 -34 -62z m374 -3439 c-160 -905 -293 -1654 -297 -1663 -6
-15 -51 -16 -500 -16 -428 0 -494 2 -494 15 0 16 1545 3311 1564 3334 9 12 11
11 14 -5 1 -10 -128 -760 -287 -1665z"/>
<path d="M10955 8348 c-52 -135 -2714 -8176 -2711 -8185 5 -11 152 -13 832
-11 l827 3 804 2410 c442 1325 808 2414 813 2419 7 7 10 -13 10 -54 -1 -36
-56 -1122 -124 -2415 -68 -1292 -121 -2353 -119 -2357 2 -5 435 -8 962 -8 810
0 960 2 970 14 13 16 2721 8157 2721 8181 0 14 -84 15 -832 13 l-832 -3 -769
-2320 c-423 -1276 -771 -2322 -773 -2324 -2 -2 -6 -2 -8 0 -2 2 45 1014 105
2249 60 1235 108 2279 106 2320 l-2 75 -988 3 c-785 2 -989 0 -992 -10z"/>
</g>
</svg>
